<?xml version="1.0" encoding="utf-8"?>
<!-- Generator: Adobe Illustrator 19.0.0, SVG Export Plug-In . SVG Version: 6.00 Build 0)  -->
<svg version="1.1" id="Layer_1" xmlns="http://www.w3.org/2000/svg" xmlns:xlink="http://www.w3.org/1999/xlink" x="0px" y="0px"
	 viewBox="0 0 512 512" style="enable-background:new 0 0 512 512;" xml:space="preserve">
<g id="XMLID_1_">
	<path id="XMLID_3_" d="M256.9,354c43.7,0,79-35.3,79-79V79c0-43.7-35.3-79-79-79s-79,35.3-79,79v197
		C177.9,318.7,213.2,354,256.9,354z"/>
	<path id="XMLID_4_" d="M374.9,176.6c-9.3,0-17.7,7.4-17.7,17.7v84.6c0,55.8-45.5,100.4-100.4,100.4s-100.4-45.5-100.4-100.4v-84.6
		c0-9.3-7.4-17.7-17.7-17.7c-9.3,0-17.7,7.4-17.7,17.7v84.6c0,68.8,51.1,125.4,118,133.8v64.1h-44.6c-9.3,0-17.7,7.4-17.7,17.7
		c0,9.3,7.4,17.7,17.7,17.7h122.7c9.3,0,17.7-7.4,17.7-17.7c0-9.3-7.4-17.7-17.7-17.7h-44.6v-64.1c66.9-8.4,118-65,118-133.8v-84.6
		C391.6,184.9,384.2,176.6,374.9,176.6z"/>
</g>
</svg>
